Patient4_TMGait_0pt2_02_right_15_GRF.mot
version=1
nRows=26
nColumns=19
inDegrees=no
endheader
time	F1x	F1y	F1z	M1x	M1y	M1z	F2x	F2y	F2z	M2x	M2y	M2z	EC1x	EC1y	EC1z	EC2x	EC2y	EC2z
33.22	-17.194	851.1667	53.8156	-281.1187	-60.3838	912.0164	6.4604	11.1879	-3.0157	3.3834	1.6939	11.2099	-0.0592	0.0182	-0.0073	-0.0462	0.0165	0.9585
33.2431	-18.0499	861.9723	54.7519	-284.9427	-61.1706	921.1451	4.1032	8.0865	-2.1097	2.4802	1.3055	8.1714	-0.0592	0.0182	-0.0073	-0.0462	0.0165	0.9585
33.2661	-18.7463	869.6164	55.431	-287.7231	-61.5611	926.6481	2.1203	5.4149	-1.3321	1.7015	0.96839	5.5634	-0.0592	0.0182	-0.0073	-0.0462	0.0165	0.9585
33.2892	-19.0909	871.9152	55.6498	-288.7258	-61.306	926.2869	0.61495	3.3611	-0.73863	1.1034	0.71391	3.5639	-0.0592	0.0182	-0.0073	-0.0462	0.0165	0.9585
33.3123	-18.8462	867.7118	55.2525	-287.5732	-60.1952	918.8309	-0.42592	1.9344	-0.33174	0.68888	0.54514	2.1726	-0.0592	0.0182	-0.0073	-0.0462	0.0165	0.9585
33.3354	-17.7724	857.0273	54.1544	-284.2898	-58.0939	904.2375	-1.0749	1.0392	-0.084612	0.4298	0.45074	1.2889	-0.0592	0.0182	-0.0073	-0.0462	0.0165	0.9585
33.3584	-15.6908	840.9097	52.3631	-279.2399	-54.9818	883.5357	-1.4249	0.53173	0.041103	0.28294	0.41367	0.76691	-0.0592	0.0182	-0.0073	-0.0462	0.0165	0.9585
33.3815	-12.5352	821.1001	49.9841	-273.0088	-50.9725	858.5154	-1.5669	0.25358	0.083349	0.20004	0.41735	0.45009	-0.0592	0.0182	-0.0073	-0.0462	0.0165	0.9585
33.4046	-8.3668	799.6535	47.1954	-266.275	-46.2877	831.347	-1.5761	0.04698	0.077612	0.1314	0.44131	0.17857	-0.0592	0.0182	-0.0073	-0.0462	0.0165	0.9585
33.4276	-3.3614	778.6003	44.2172	-259.7002	-41.2175	804.2268	-1.5069	-0.23381	0.052418	0.030014	0.46393	-0.20014	-0.0592	0.0182	-0.0073	-0.0462	0.0165	0.9585
33.4507	2.2304	759.6881	41.2827	-253.8438	-36.0768	779.0926	-1.3908	-0.71029	0.029803	-0.14452	0.46321	-0.81186	-0.0592	0.0182	-0.0073	-0.0462	0.0165	0.9585
33.4738	8.107	744.1943	38.616	-249.1006	-31.1806	757.4317	-1.2374	-1.4716	0.02608	-0.42206	0.41859	-1.7452	-0.0592	0.0182	-0.0073	-0.0462	0.0165	0.9585
33.4969	13.9317	732.867	36.4201	-245.6809	-26.8302	740.2007	-1.0392	-2.5543	0.050971	-0.81476	0.31448	-3.0366	-0.0592	0.0182	-0.0073	-0.0462	0.0165	0.9585
33.5199	19.3857	726.0175	34.8615	-243.6491	-23.2821	727.8803	-0.77315	-3.9134	0.10835	-1.3072	0.13952	-4.6329	-0.0592	0.0182	-0.0073	-0.0462	0.0165	0.9585
33.543	24.2297	723.6076	34.0509	-242.9649	-20.7128	720.5377	-0.41064	-5.3837	0.19551	-1.8427	-0.10742	-6.3371	-0.0592	0.0182	-0.0073	-0.0462	0.0165	0.9585
33.5661	28.3413	725.2517	34.031	-243.4903	-19.1934	717.8166	0.066524	-6.6313	0.29874	-2.3052	-0.41203	-7.7539	-0.0592	0.0182	-0.0073	-0.0462	0.0165	0.9585
33.5891	31.7152	730.1318	34.7886	-244.9622	-18.7	718.871	0.65463	-7.1016	0.39376	-2.5011	-0.74059	-8.2345	-0.0592	0.0182	-0.0073	-0.0462	0.0165	0.9585
33.6122	34.4246	736.9578	36.2596	-246.9672	-19.1319	722.3564	1.3109	-5.9772	0.44187	-2.141	-1.0257	-6.8228	-0.0592	0.0182	-0.0073	-0.0462	0.0165	0.9585
33.6353	36.5537	744.0042	38.3226	-248.9448	-20.3316	726.494	1.9313	-2.1682	0.38732	-0.83532	-1.1548	-2.2379	-0.0592	0.0182	-0.0073	-0.0462	0.0165	0.9585
33.6584	38.1499	749.2606	40.7888	-250.2383	-22.0937	729.2556	2.3277	5.642	0.15491	1.8891	-0.95944	7.0626	-0.0592	0.0182	-0.0073	-0.0462	0.0165	0.9585
33.6814	39.2137	750.6582	43.4038	-250.1686	-24.1745	728.6056	2.2069	18.851	-0.34638	6.5395	-0.21549	22.7038	-0.0592	0.0182	-0.0073	-0.0462	0.0165	0.9585
33.7045	39.703	746.257	45.8625	-248.0992	-26.3088	722.6864	1.1601	38.6385	-1.2138	13.5529	1.3424	46.0374	-0.0592	0.0182	-0.0073	-0.0462	0.0165	0.9585
33.7276	39.5181	734.3616	47.8315	-243.4797	-28.2346	709.9219	-1.3271	65.478	-2.5354	23.1248	3.9934	77.5745	-0.0592	0.0182	-0.0073	-0.0462	0.0165	0.9585
33.7506	38.5485	713.7421	48.9817	-235.9242	-29.702	689.1933	-5.5867	98.6977	-4.4059	35.038	7.9588	116.476	-0.0592	0.0182	-0.0073	-0.0462	0.0165	0.9585
33.7737	36.7961	684.031	49.0754	-225.342	-30.5062	660.1577	-11.1987	136.3979	-7.0177	48.6143	13.2936	160.4345	-0.0592	0.0182	-0.0073	-0.0462	0.0165	0.9585
33.7968	34.4546	646.1055	48.0408	-212.0633	-30.5244	623.5793	-17.1823	175.8939	-10.3958	62.8835	19.6394	206.1921	-0.0592	0.0182	-0.0073	-0.0462	0.0165	0.9585
